# xmcd
#
# Track frame offsets:
#	150
#	11813
#	24092
#	40299
#	60174
#	77646
#	95198
#	108016
#	125531
#	142378
#	157957
#
# Disc length: 2333 seconds
#
# Revision: 0
# Processed by: cddbd v1.5.2PL0 Copyright (c) Steve Scherf et al.
# Submitted via: EasyCDDAExtractor 15.3.0.1
#
DISCID=86091b0b
DTITLE=Sara Petite - Circus Comes to Town
DYEAR=2013
DGENRE=Country
TTITLE0=Perfume
TTITLE1=Movin' On
TTITLE2=Barbwire
TTITLE3=Circus Comes to Town
TTITLE4=Drinkin' to Remember
TTITLE5=The Master
TTITLE6=If Mama Ain't Happy
TTITLE7=Forever Blue
TTITLE8=Scarlett Letter
TTITLE9=Someday I'm Gonna Fly
TTITLE10=Ashes
EXTD=
EXTT0=
EXTT1=
EXTT2=
EXTT3=
EXTT4=
EXTT5=
EXTT6=
EXTT7=
EXTT8=
EXTT9=
EXTT10=
PLAYORDER=
